<?xml version="1.0" standalone="no"?>
<!DOCTYPE svg PUBLIC "-//W3C//DTD SVG 20010904//EN"
 "http://www.w3.org/TR/2001/REC-SVG-20010904/DTD/svg10.dtd">
<svg version="1.0" xmlns="http://www.w3.org/2000/svg"
 width="500.000000pt" height="500.000000pt" viewBox="0 0 500.000000 500.000000"
 preserveAspectRatio="xMidYMid meet">
<metadata>
Created by potrace 1.14, written by Peter Selinger 2001-2017
</metadata>
<g transform="translate(0.000000,500.000000) scale(0.100000,-0.100000)"
fill="#000000" stroke="none">
<path d="M2308 4305 c-2 -2 -41 -5 -87 -9 -46 -3 -87 -8 -91 -11 -3 -2 -22 -7
-41 -10 -148 -26 -321 -94 -474 -189 -269 -166 -485 -421 -600 -709 -15 -37
-32 -67 -39 -67 -30 0 -82 111 -69 147 5 15 3 16 -8 5 -8 -8 -14 -38 -14 -83
-2 -61 2 -76 26 -115 69 -108 228 -157 504 -158 83 0 179 3 215 7 36 4 92 9
125 12 33 4 66 9 74 11 8 3 40 7 70 10 31 3 69 10 85 15 40 12 44 11 20 -5
-38 -27 -278 -127 -389 -163 -60 -19 -117 -38 -125 -41 -18 -6 -12 -5 -130
-30 -52 -11 -126 -24 -165 -27 -38 -4 -79 -9 -90 -11 -11 -2 -59 -4 -107 -5
-56 -1 -88 -5 -90 -12 -3 -7 -4 -41 -3 -77 6 -207 51 -398 142 -602 23 -51 28
-56 52 -53 199 28 664 130 822 181 25 8 54 16 65 19 53 11 370 120 444 152 19
9 49 21 65 28 150 64 279 127 390 191 55 31 109 62 120 68 30 17 79 50 85 56
3 3 23 17 44 30 38 23 158 116 220 169 128 112 279 295 336 407 31 61 32 62
14 95 -55 108 -167 253 -279 362 -221 216 -558 377 -845 403 -63 6 -268 12
-272 9z m29 -347 c-5 -19 1 -27 32 -44 33 -18 41 -19 57 -7 26 19 35 16 29 -9
-4 -19 3 -28 40 -50 43 -26 46 -26 80 -12 38 15 43 10 21 -22 -13 -18 -10 -23
46 -67 56 -45 62 -47 91 -38 59 21 75 8 35 -29 l-22 -20 29 -30 c18 -19 35
-28 45 -25 32 13 136 38 160 38 54 1 128 -14 133 -28 11 -28 -75 -121 -158
-170 -64 -37 -65 -39 -65 -80 0 -40 1 -42 30 -42 17 0 33 -2 36 -6 9 -8 -17
-33 -44 -41 -12 -4 -22 -10 -23 -14 0 -4 -2 -15 -4 -25 -2 -10 -6 -45 -9 -78
-6 -58 -6 -59 19 -59 14 0 25 -5 25 -10 0 -11 -41 -30 -51 -24 -4 2 -16 -24
-27 -57 l-20 -60 25 -10 c29 -11 24 -22 -10 -24 -16 -1 -28 -14 -43 -46 l-22
-44 22 -12 c21 -12 20 -12 -5 -13 -16 0 -33 -9 -41 -22 -9 -13 -34 -33 -57
-45 -48 -26 -51 -19 -22 54 16 43 28 85 47 178 3 17 8 89 9 162 3 113 -1 163
-20 219 -2 8 -35 2 -102 -17 -188 -56 -293 -90 -293 -96 0 -3 7 -3 15 1 20 7
19 -10 -5 -62 -18 -41 -47 -79 -54 -71 -2 2 -8 27 -13 56 -7 37 -7 54 1 58 6
2 -3 2 -20 -1 -37 -6 -55 20 -28 41 15 10 13 17 -21 64 -21 28 -35 55 -31 58
10 10 115 -26 135 -46 18 -18 20 -18 57 3 22 11 41 23 44 26 3 3 24 14 47 25
24 11 43 23 43 28 0 4 4 7 9 7 12 0 151 80 151 87 0 12 -101 134 -159 190 -72
72 -202 172 -275 211 l-49 27 34 13 c21 9 50 12 75 8 30 -4 46 -1 54 9 18 21
23 19 17 -7z"/>
<path d="M2235 3280 c-3 -6 1 -7 9 -4 18 7 21 14 7 14 -6 0 -13 -4 -16 -10z"/>
<path d="M3915 3746 c159 -237 127 -525 -82 -743 -39 -40 -160 -140 -223 -183
-19 -13 -37 -27 -40 -31 -23 -30 -314 -206 -469 -284 -167 -83 -471 -207 -566
-229 -5 -1 -41 -12 -80 -24 -70 -21 -293 -76 -350 -86 -16 -2 -68 -12 -115
-20 -47 -9 -102 -18 -122 -20 -21 -3 -53 -7 -70 -10 -37 -6 -82 -11 -208 -23
-107 -9 -525 -10 -605 -1 l-60 7 45 -14 c25 -7 70 -20 100 -29 34 -10 61 -24
70 -38 94 -143 240 -298 375 -398 165 -123 418 -232 615 -265 105 -18 160 -22
288 -20 81 2 156 5 167 8 11 3 43 8 70 11 83 11 316 82 323 98 2 5 9 8 15 8
19 0 163 76 227 120 204 139 372 323 487 538 106 195 163 408 177 652 1 14 25
59 55 100 67 95 145 255 166 344 19 78 21 190 5 262 -13 57 -60 159 -90 194
-36 43 -134 140 -141 140 -4 0 12 -29 36 -64z"/>
<path d="M2531 1178 c-82 -22 -132 -94 -127 -183 4 -66 27 -109 77 -142 33
-22 53 -27 103 -27 71 -1 110 18 146 71 20 29 21 36 9 44 -24 15 -48 10 -59
-12 -24 -44 -110 -58 -161 -26 -22 14 -49 66 -49 96 0 30 24 83 46 103 43 37
119 29 159 -18 17 -20 27 -24 48 -19 33 9 33 10 5 52 -38 56 -122 82 -197 61z"/>
<path d="M1679 1172 c-1 -4 -2 -82 -3 -174 l-2 -168 32 0 c18 0 34 6 36 13 2
6 4 84 3 172 l0 160 -33 2 c-17 1 -33 -2 -33 -5z"/>
<path d="M1832 1005 l-1 -175 35 0 36 0 -4 131 c-3 119 -2 128 12 108 8 -13
55 -71 104 -129 83 -97 92 -105 125 -105 l36 0 0 170 0 170 -33 1 -32 1 0
-131 c-1 -103 -3 -127 -12 -111 -13 22 -187 226 -203 237 -5 4 -22 8 -36 8
l-26 0 -1 -175z"/>
<path d="M2267 1173 c-3 -5 -5 -83 -5 -175 l1 -168 33 0 34 0 0 175 0 175 -29
0 c-17 0 -32 -3 -34 -7z"/>
<path d="M2811 1003 l-1 -173 35 0 35 0 1 50 c0 28 0 84 0 125 0 41 0 98 0
125 l-1 51 -35 -3 -34 -2 0 -173z"/>
<path d="M3071 1103 c-21 -43 -61 -122 -89 -175 l-49 -98 37 0 c35 0 40 4 57
40 10 22 25 40 33 40 70 5 144 4 161 -2 11 -4 26 -24 35 -43 13 -32 18 -35 53
-35 l39 0 -88 173 c-83 162 -90 172 -119 175 -29 3 -32 -1 -70 -75z m79 -13
c0 -8 30 -79 47 -112 2 -5 -23 -8 -55 -8 l-60 0 27 65 c23 58 41 82 41 55z"/>
<path d="M2254 751 c-50 -15 -105 -86 -98 -128 1 -7 2 -19 3 -26 1 -9 16 -14
46 -14 28 0 41 4 33 9 -9 5 -5 8 11 8 13 0 21 -3 17 -7 -8 -8 133 -32 147 -25
4 2 2 11 -5 20 -8 10 -9 13 -1 9 20 -12 20 45 0 82 -10 18 -24 39 -30 46 -22
22 -88 36 -123 26z m135 -157 c2 -2 -10 -4 -27 -4 -17 0 -33 4 -36 9 -6 9 54
4 63 -5z"/>
<path d="M2511 741 c-18 -12 -21 -125 -3 -161 18 -37 58 -52 98 -35 38 16 50
45 49 125 0 60 -2 65 -22 68 -22 3 -23 0 -23 -61 0 -77 -6 -97 -29 -97 -31 0
-41 22 -41 91 0 69 -6 84 -29 70z"/>
<path d="M2954 735 c-68 -28 -51 -103 27 -119 16 -3 29 -12 29 -20 0 -20 -38
-27 -54 -10 -14 14 -46 9 -46 -6 0 -5 11 -17 25 -28 20 -16 32 -18 62 -11 85
19 86 87 2 114 -27 9 -49 21 -49 25 0 16 35 29 52 19 19 -11 50 -1 45 14 -2 6
-17 17 -33 23 -23 10 -36 9 -60 -1z"/>
<path d="M1937 720 c4 -13 14 -20 30 -20 21 0 24 -4 23 -27 -1 -16 -2 -52 -1
-80 1 -46 4 -53 21 -53 18 0 20 7 20 80 0 79 0 80 25 80 18 0 25 5 25 20 0 18
-7 20 -74 20 -69 0 -74 -1 -69 -20z"/>
<path d="M2698 733 c-2 -4 -4 -48 -3 -98 0 -86 1 -90 23 -93 20 -3 22 1 22 37
0 23 4 41 9 41 5 0 24 -18 41 -40 22 -28 39 -40 57 -40 l25 0 -31 39 c-31 39
-31 39 -14 70 16 28 17 33 3 58 -14 25 -22 28 -72 31 -31 2 -58 -1 -60 -5z
m97 -53 c0 -9 -11 -16 -27 -18 -23 -3 -28 1 -28 18 0 17 5 21 28 18 16 -2 27
-9 27 -18z"/>
<path d="M2218 549 c-15 -4 -30 -4 -35 0 -4 3 -2 -1 5 -11 11 -13 19 -14 49
-6 20 5 60 8 90 6 30 -3 56 -1 59 4 3 4 -7 9 -23 9 -15 1 -48 2 -73 4 -25 1
-57 -2 -72 -6z"/>
<path d="M2276 522 c-4 -7 -11 -10 -15 -8 -4 3 -13 1 -21 -4 -11 -7 -8 -10 12
-15 38 -10 91 -2 96 14 3 10 -3 13 -26 9 -18 -2 -33 0 -35 6 -2 6 -6 5 -11 -2z"/>
</g>
</svg>
